# xmcd
#
# Track frame offsets: 
#        150
#        7491
#        28689
#        52072
#        79784
#        109649
#        140706
#        164178
#        186920
#        213792
#        245024
#        264849
#
# Disc length: 3781 seconds
#
# Revision: 0
# Processed by: cddbd v1.5.2PL0 Copyright (c) Steve Scherf et al.
# Submitted via: ExactAudioCopy v1.0b3
#
DISCID=b10ec30c
DTITLE=Various Artist - Nho Que Huong
DYEAR=1993
DGENRE=
TTITLE0=Thanh Lan - Loi gioi thieu
TTITLE1=Le Thu - Nu cuoi son cuoc
TTITLE2=Phuong Thao - Lang toi
TTITLE3=The Son - Nho que huong
TTITLE4=Thanh Lan - Tieng hat ve khuya
TTITLE5=Ngoc Anh - Ong lai do
TTITLE6=Thanh Long Bass - Mua thu khong tro lai
TTITLE7=Ai Xuan - Tinh doi
TTITLE8=Thanh Lan - Tren song Huong
TTITLE9=Phuong Thao - Co lang gieng
TTITLE10=Ai Xuan - Doi anh
TTITLE11=The Son - Buom hoa
EXTD=
EXTT0=
EXTT1=
EXTT2=
EXTT3=
EXTT4=
EXTT5=
EXTT6=
EXTT7=
EXTT8=
EXTT9=
EXTT10=
EXTT11=
PLAYORDER=
